<svg width="217" height="23" viewBox="0 0 217 23" fill="none" xmlns="http://www.w3.org/2000/svg">
<path id="Vector" d="M203.428 23V12.9276L194.876 0.0793091H200.211L205.86 8.88276L211.508 0.0793091H217L208.292 12.9276V23H203.428ZM173.067 18.7966V13.4034H166.712V9.35861H177.931V23H167.732H167.418C166.947 23 166.398 23 165.927 23C165.535 22.9207 165.221 22.9207 164.907 22.8414C164.594 22.8414 164.28 22.7621 163.966 22.6828C163.574 22.6034 163.103 22.4448 162.475 22.2069C161.848 21.969 161.063 21.4138 160.122 20.6207C159.18 19.8276 158.396 18.6379 157.925 17.0517C157.376 15.4655 157.141 13.8 157.141 11.9759V10.6276C157.141 9.51724 157.298 8.48621 157.533 7.53449C157.768 6.58276 158.161 5.71035 158.553 4.91724C158.945 4.12414 159.494 3.41034 160.043 2.77586C160.593 2.14138 161.456 1.58621 162.632 1.03104C163.731 0.475864 165.535 0.158624 167.889 0.158624H178.087V4.12414H167.889C166.476 4.12414 165.378 4.44138 164.672 5.07586C163.888 5.71034 163.338 6.58276 163.025 7.69311C162.711 8.80345 162.554 10.0724 162.554 11.4207V11.7379C162.554 13.9586 162.946 15.7034 163.652 16.9724C164.437 18.2414 165.849 18.8759 167.889 18.8759H173.067V18.7966ZM128.898 4.12414H123.092V9.9138H128.898C129.761 9.9138 130.467 9.83448 131.094 9.75517C131.644 9.67586 132.193 9.35861 132.663 8.96206C133.056 8.4862 133.213 7.85172 133.213 6.97931C133.213 5.71034 132.82 4.91724 132.114 4.6C131.33 4.28276 130.231 4.12414 128.898 4.12414ZM123.014 23H118.228V0.0793091H129.996C130.624 0.0793091 131.173 0.079314 131.8 0.158624C132.428 0.237935 133.134 0.317245 133.919 0.555176C134.703 0.713797 135.409 1.18966 136.115 1.82414C136.821 2.45862 137.292 3.25173 137.606 4.12414C137.841 5.07586 137.998 6.02758 137.998 6.97931C137.998 8.08965 137.841 9.04138 137.527 9.9138C137.135 10.7862 136.665 11.5793 136.037 12.1345C135.409 12.6896 134.546 13.1655 133.448 13.4034L139.018 23H133.683L128.662 14.0379H123.092V23H123.014ZM97.5951 0V3.96552H89.7498C88.0239 3.96552 86.6902 4.44138 85.7487 5.3138C84.8073 6.18621 84.3366 7.53448 84.3366 9.35861H97.5166V13.3241H84.3366C84.3366 15.2276 84.6504 16.5759 85.3565 17.369C86.0625 18.1621 86.6902 18.6379 87.3178 18.7172C87.9454 18.8759 88.7299 18.9552 89.6714 18.9552H97.5166V22.9207H89.5145C88.0239 22.9207 86.6902 22.7621 85.6703 22.5241C84.5719 22.2862 83.5521 21.731 82.4537 20.9379C81.1985 19.8276 80.257 18.4793 79.7079 16.9724C79.1587 15.3862 78.9233 13.7207 78.9233 11.8966L79.0018 10.5483C79.0018 9.75517 79.0803 8.88276 79.2372 8.08966C79.3941 7.29655 79.6294 6.58276 79.8648 5.86897C80.1002 5.15517 80.414 4.52069 80.7278 4.04483C81.0416 3.48965 81.5908 2.93448 82.2184 2.22069C82.846 1.58621 83.6305 1.11034 84.5719 0.793103C85.5134 0.475862 86.3764 0.237935 87.1609 0.158624C87.9454 0.079314 88.8084 0 89.5929 0H97.5951ZM44.2473 23H39.3832V0.0793091H45.4241L54.6815 16.5759L54.5246 0H59.3102V22.9207H53.8185L44.0904 5.55173L44.2473 23ZM18.6717 0V3.96552H10.8265C9.10052 3.96552 7.76682 4.44138 6.82539 5.3138C5.88396 6.18621 5.41325 7.53448 5.41325 9.35861H18.5933V13.3241H5.41325C5.41325 15.2276 5.72705 16.5759 6.43313 17.369C7.1392 18.1621 7.76682 18.6379 8.39444 18.7172C9.02206 18.8759 9.80659 18.9552 10.748 18.9552H18.5933V22.9207H10.5911C9.10051 22.9207 7.76682 22.7621 6.74693 22.5241C5.64859 22.2862 4.62871 21.731 3.53037 20.9379C2.27513 19.8276 1.33369 18.4793 0.784526 16.9724C0.235358 15.3862 0 13.7207 0 11.8966L0.0784574 10.5483C0.0784574 9.75517 0.156924 8.88276 0.31383 8.08966C0.470735 7.29655 0.706083 6.58276 0.941441 5.86897C1.1768 5.15517 1.49061 4.52069 1.80443 4.04483C2.11824 3.48965 2.6674 2.93448 3.29502 2.22069C3.92264 1.58621 4.70717 1.11034 5.6486 0.793103C6.59003 0.475862 7.453 0.237935 8.23753 0.158624C9.02205 0.079314 9.88504 0 10.6696 0H18.6717Z" fill="white"/>
</svg>
